<svg width="100%" height="100%" viewBox="0 0 880 284" version="1.1" xmlns="http://www.w3.org/2000/svg" style="fill-rule:evenodd;clip-rule:evenodd;stroke-linejoin:round;stroke-miterlimit:2;"><path d="M83.644,144.369l-46.81,47.865l-0,67.166l-36.834,0l0,-259.4l36.834,0l-0,145.141l139.662,-145.141l42.205,0l-109.734,116.576l117.408,142.824l-42.973,0l-99.758,-115.031Z" style="fill:#fff;fill-rule:nonzero;"/><path d="M494.954,238.556l14.584,-27.793c16.879,11.58 42.97,20.072 68.295,20.072c32.996,0 46.042,-10.036 46.042,-27.02c0,-44.006 -123.55,-6.177 -123.55,-84.151c0,-35.513 31.463,-58.674 81.342,-58.674c25.325,0 54.483,6.948 71.366,17.757l-15.346,27.793c-17.649,-11.581 -36.833,-15.441 -56.02,-15.441c-30.692,0 -46.042,11.581 -46.042,27.021c0,46.321 123.55,8.492 123.55,84.923c0,35.513 -32.233,57.902 -84.412,57.902c-31.463,0.772 -63.692,-9.265 -79.809,-22.389Z" style="fill:#fff;fill-rule:nonzero;"/><path d="M876.342,140.509l-0,118.891l-33.767,0l0,-26.248c-11.508,17.756 -33.762,27.793 -64.458,27.793c-44.509,-0 -72.134,-23.933 -72.134,-57.903c0,-31.652 19.95,-57.129 78.271,-57.129l56.021,-0l0,-6.948c0,-30.11 -17.65,-47.094 -52.183,-47.094c-23.021,-0 -46.809,8.492 -62.159,20.845l-14.579,-27.021c19.954,-16.213 49.113,-25.477 80.575,-25.477c54.484,0.772 84.413,27.021 84.413,80.291Zm-35.3,58.673l-0,-27.792l-54.484,-0c-35.3,-0 -45.275,13.896 -45.275,30.109c0,19.3 16.113,31.653 42.971,31.653c26.859,0.772 48.346,-10.809 56.788,-33.97Z" style="fill:#fff;fill-rule:nonzero;"/><path d="M381.385,207.675l-0,52.498l22.253,-13.125l0,-52.498l-22.253,13.125Z" style="fill:#fff;fill-rule:nonzero;"/><path d="M442.775,143.597l-91.318,-53.27l-50.647,-29.337l-49.879,87.239l0.767,81.835l90.55,53.269l9.209,-5.404l0,-77.202l40.671,-71.799l41.439,23.933l-0,77.203l9.208,-5.404l-0,-81.063Z" style="fill:#fff;fill-rule:nonzero;"/></svg>